<svg width="49" height="49" viewBox="0 0 49 49" fill="none" xmlns="http://www.w3.org/2000/svg">
<circle cx="24.5" cy="24.1691" r="24" fill="white"/>
<circle cx="24.5" cy="24.1691" r="23.5" stroke="#CDD1D0" stroke-opacity="0.3"/>
<g clip-path="url(#clip0_1_75)">
<path d="M34.1841 30.5559C33.8211 31.3945 33.3915 32.1663 32.8938 32.8759C32.2153 33.8433 31.6597 34.5129 31.2316 34.8847C30.5679 35.4951 29.8568 35.8077 29.0954 35.8254C28.5487 35.8254 27.8895 35.6699 27.1221 35.3543C26.3522 35.0403 25.6446 34.8847 24.9977 34.8847C24.3192 34.8847 23.5915 35.0403 22.8132 35.3543C22.0336 35.6699 21.4057 35.8343 20.9255 35.8506C20.1953 35.8817 19.4675 35.5602 18.741 34.8847C18.2773 34.4803 17.6973 33.787 17.0025 32.8048C16.2571 31.7559 15.6442 30.5397 15.1641 29.153C14.6499 27.6553 14.3921 26.205 14.3921 24.8009C14.3921 23.1925 14.7396 21.8053 15.4358 20.6428C15.9829 19.709 16.7107 18.9725 17.6216 18.4318C18.5325 17.891 19.5168 17.6155 20.5768 17.5979C21.1568 17.5979 21.9173 17.7773 22.8625 18.1298C23.805 18.4836 24.4102 18.663 24.6755 18.663C24.8738 18.663 25.5461 18.4532 26.6858 18.035C27.7636 17.6472 28.6731 17.4866 29.4183 17.5498C31.4375 17.7128 32.9545 18.5088 33.9634 19.9428C32.1575 21.037 31.2642 22.5695 31.2819 24.5356C31.2982 26.0669 31.8538 27.3413 32.9456 28.3531C33.4404 28.8227 33.993 29.1856 34.6078 29.4434C34.4745 29.8301 34.3337 30.2004 34.1841 30.556V30.5559ZM29.5531 12.3328C29.5531 13.5331 29.1146 14.6538 28.2406 15.6911C27.1858 16.9242 25.91 17.6368 24.5265 17.5244C24.5079 17.3735 24.4986 17.2216 24.4986 17.0695C24.4986 15.9173 25.0002 14.6841 25.891 13.6759C26.3357 13.1654 26.9014 12.7409 27.5873 12.4023C28.2717 12.0687 28.9191 11.8843 29.5279 11.8527C29.5457 12.0131 29.5531 12.1736 29.5531 12.3328V12.3328Z" fill="black"/>
</g>
<defs>
<clipPath id="clip0_1_75">
<rect width="22" height="25" fill="white" transform="translate(13.5 11.1691)"/>
</clipPath>
</defs>
</svg>
