<svg width="49" height="49" viewBox="0 0 49 49" fill="none" xmlns="http://www.w3.org/2000/svg">
<circle cx="24.5" cy="24.1691" r="24" fill="white"/>
<circle cx="24.5" cy="24.1691" r="23.5" stroke="#CDD1D0" stroke-opacity="0.3"/>
<g clip-path="url(#clip0_1_61)">
<path d="M35.9287 23.8527C35.9287 17.2252 30.5561 11.8527 23.9287 11.8527C17.3013 11.8527 11.9287 17.2252 11.9287 23.8527C11.9287 29.8422 16.3169 34.8067 22.0537 35.7069V27.3214H19.0068V23.8527H22.0537V21.2089C22.0537 18.2014 23.8452 16.5402 26.5863 16.5402C27.8992 16.5402 29.2725 16.7745 29.2725 16.7745V19.7277H27.7593C26.2686 19.7277 25.8037 20.6527 25.8037 21.6017V23.8527H29.1318L28.5998 27.3214H25.8037V35.7069C31.5405 34.8067 35.9287 29.8422 35.9287 23.8527Z" fill="#1877F2"/>
<path d="M28.5998 27.3214L29.1318 23.8527H25.8037V21.6016C25.8037 20.6527 26.2686 19.7277 27.7593 19.7277H29.2725V16.7745C29.2725 16.7745 27.8992 16.5402 26.5863 16.5402C23.8452 16.5402 22.0537 18.2014 22.0537 21.2089V23.8527H19.0068V27.3214H22.0537V35.7069C22.674 35.8041 23.3009 35.8528 23.9287 35.8527C24.5666 35.8527 25.1928 35.8027 25.8037 35.7069V27.3214H28.5998Z" fill="white"/>
</g>
<defs>
<clipPath id="clip0_1_61">
<rect width="25" height="25" fill="white" transform="translate(11.5 11.1691)"/>
</clipPath>
</defs>
</svg>
