<svg width="24" height="24" viewBox="0 0 24 24" fill="none" xmlns="http://www.w3.org/2000/svg">
<g clip-path="url(#clip0_2_116)">
<path d="M19 1H5C2.243 1 0 3.243 0 6V18C0 20.757 2.243 23 5 23H19C21.757 23 24 20.757 24 18V6C24 3.243 21.757 1 19 1ZM22 18C22 19.654 20.654 21 19 21H5C3.346 21 2 19.654 2 18V6C2 4.346 3.346 3 5 3H19C20.654 3 22 4.346 22 6V18ZM19 7C19 7.26522 18.8946 7.51957 18.7071 7.70711C18.5196 7.89464 18.2652 8 18 8H11C10.7348 8 10.4804 7.89464 10.2929 7.70711C10.1054 7.51957 10 7.26522 10 7C10 6.73478 10.1054 6.48043 10.2929 6.29289C10.4804 6.10536 10.7348 6 11 6H18C18.2652 6 18.5196 6.10536 18.7071 6.29289C18.8946 6.48043 19 6.73478 19 7ZM8 7C7.99987 7.39796 7.84165 7.77956 7.56016 8.06087C7.27867 8.34217 6.89696 8.50013 6.499 8.5C6.10104 8.49987 5.71944 8.34165 5.43813 8.06016C5.15683 7.77867 4.99887 7.39696 4.999 6.999C4.99913 6.60104 5.15735 6.21944 5.43884 5.93813C5.72033 5.65683 6.10204 5.49887 6.5 5.499C6.89796 5.49913 7.27956 5.65735 7.56087 5.93884C7.84217 6.22033 8.00013 6.60204 8 7ZM19 12C19 12.2652 18.8946 12.5196 18.7071 12.7071C18.5196 12.8946 18.2652 13 18 13H11C10.7348 13 10.4804 12.8946 10.2929 12.7071C10.1054 12.5196 10 12.2652 10 12C10 11.7348 10.1054 11.4804 10.2929 11.2929C10.4804 11.1054 10.7348 11 11 11H18C18.2652 11 18.5196 11.1054 18.7071 11.2929C18.8946 11.4804 19 11.7348 19 12ZM8 12C7.99993 12.197 7.96106 12.3922 7.88559 12.5742C7.81012 12.7562 7.69954 12.9216 7.56016 13.0609C7.42078 13.2002 7.25533 13.3106 7.07325 13.386C6.89118 13.4613 6.69605 13.5001 6.499 13.5C6.30195 13.4999 6.10685 13.4611 5.92482 13.3856C5.7428 13.3101 5.57742 13.1995 5.43813 13.0602C5.15683 12.7787 4.99887 12.397 4.999 11.999C4.99913 11.601 5.15735 11.2194 5.43884 10.9381C5.72033 10.6568 6.10204 10.4989 6.5 10.499C6.89796 10.4991 7.27956 10.6573 7.56087 10.9388C7.84217 11.2203 8.00013 11.602 8 12ZM19 17C19 17.2652 18.8946 17.5196 18.7071 17.7071C18.5196 17.8946 18.2652 18 18 18H11C10.7348 18 10.4804 17.8946 10.2929 17.7071C10.1054 17.5196 10 17.2652 10 17C10 16.7348 10.1054 16.4804 10.2929 16.2929C10.4804 16.1054 10.7348 16 11 16H18C18.2652 16 18.5196 16.1054 18.7071 16.2929C18.8946 16.4804 19 16.7348 19 17ZM8 17C7.99987 17.398 7.84165 17.7796 7.56016 18.0609C7.27867 18.3422 6.89696 18.5001 6.499 18.5C6.10104 18.4999 5.71944 18.3417 5.43813 18.0602C5.15683 17.7787 4.99887 17.397 4.999 16.999C4.99907 16.802 5.03794 16.6068 5.11341 16.4248C5.18888 16.2428 5.29946 16.0774 5.43884 15.9381C5.57822 15.7988 5.74367 15.6884 5.92575 15.613C6.10782 15.5377 6.30295 15.4989 6.5 15.499C6.69705 15.4991 6.89215 15.5379 7.07418 15.6134C7.2562 15.6889 7.42158 15.7995 7.56087 15.9388C7.70016 16.0782 7.81063 16.2437 7.88597 16.4257C7.96132 16.6078 8.00007 16.803 8 17Z" fill="black"/>
</g>
<defs>
<clipPath id="clip0_2_116">
<rect width="24" height="24" fill="white"/>
</clipPath>
</defs>
</svg>
